<svg class="animated" id="freepik_stories-witch" xmlns="http://www.w3.org/2000/svg" viewBox="0 0 500 500" version="1.1" xmlns:xlink="http://www.w3.org/1999/xlink" xmlns:svgjs="http://svgjs.com/svgjs"><style>svg#freepik_stories-witch:not(.animated) .animable {opacity: 0;}svg#freepik_stories-witch.animated #freepik--Character--inject-236 {animation: 1.4s 1 forwards cubic-bezier(.36,-0.01,.5,1.38) slideDown,1.5s Infinite  linear floating;animation-delay: 0s,1.4s;}            @keyframes slideDown {                0% {                    opacity: 0;                    transform: translateY(-30px);                }                100% {                    opacity: 1;                    transform: translateY(0);                }            }                    @keyframes floating {                0% {                    opacity: 1;                    transform: translateY(0px);                }                50% {                    transform: translateY(-10px);                }                100% {                    opacity: 1;                    transform: translateY(0px);                }            }        </style><g id="freepik--background-simple--inject-236" class="animable" style="transform-origin: 249.92px 250.02px;"><g id="freepik--Background--inject-236" class="animable" style="transform-origin: 249.92px 250.02px;"><path d="M460.58,321.77a109.94,109.94,0,0,1-3.22,10.81c-.94,2.59-1.95,5.17-3.08,7.71A132,132,0,0,1,442.12,362c-27.87,40.54-79.26,71.63-130.81,82.41C188.2,470.11,97.66,361.85,59.49,275c-24-54.53-36.61-118.32-.66-171.42C96.41,48.11,211.14,27.84,270.71,90c18.59,19.45,29.42,44.74,52.48,60.45,44,30,105.13,49.28,130.93,106.17q1.71,3.78,3.09,7.55a100.7,100.7,0,0,1,4.94,18.55A97,97,0,0,1,460.58,321.77Z" style="fill: rgb(38, 50, 56); transform-origin: 249.92px 250.02px;" id="el1alwqi4u1jp" class="animable"></path><g id="el8d2xup6h2pt"><path d="M460.58,321.77a109.94,109.94,0,0,1-3.22,10.81c-.94,2.59-1.95,5.17-3.08,7.71A132,132,0,0,1,442.12,362c-27.87,40.54-79.26,71.63-130.81,82.41C188.2,470.11,97.66,361.85,59.49,275c-24-54.53-36.61-118.32-.66-171.42C96.41,48.11,211.14,27.84,270.71,90c18.59,19.45,29.42,44.74,52.48,60.45,44,30,105.13,49.28,130.93,106.17q1.71,3.78,3.09,7.55a100.7,100.7,0,0,1,4.94,18.55A97,97,0,0,1,460.58,321.77Z" style="fill: rgb(255, 255, 255); opacity: 0.3; isolation: isolate; transform-origin: 249.92px 250.02px;" class="animable"></path></g></g><polyline points="168.09 245.37 165.02 245.5 155.9 245.9 151 246.11" style="fill: none; transform-origin: 159.545px 245.74px;" id="el3pwbjxjr03s" class="animable"></polyline></g><g id="freepik--Stars--inject-236" class="animable" style="transform-origin: 270.965px 275.005px;"><polygon points="118.53 306.74 119.57 302.43 116.61 299.13 121.03 298.79 123.25 294.95 124.94 299.05 129.28 299.98 125.91 302.85 126.36 307.26 122.59 304.94 118.53 306.74" style="fill: rgb(0, 255, 136); transform-origin: 122.945px 301.105px;" id="elhdgobt6f2st" class="animable"></polygon><polygon points="108.8 176.4 109.17 174.84 108.1 173.65 109.7 173.53 110.5 172.14 111.12 173.62 112.69 173.96 111.47 175 111.63 176.59 110.26 175.75 108.8 176.4" style="fill: rgb(0, 255, 136); transform-origin: 110.395px 174.365px;" id="elpe78ohxkpzj" class="animable"></polygon><polygon points="400.03 290.95 398.13 287.93 394.57 287.79 396.85 285.05 395.88 281.61 399.2 282.94 402.16 280.96 401.93 284.52 404.73 286.73 401.27 287.6 400.03 290.95" style="fill: rgb(0, 255, 136); transform-origin: 399.65px 285.955px;" id="elrq1lh76g9sb" class="animable"></polygon><polygon points="430.75 286.94 429.51 284.97 427.18 284.87 428.67 283.08 428.04 280.83 430.2 281.69 432.15 280.4 431.99 282.73 433.83 284.18 431.56 284.75 430.75 286.94" style="fill: rgb(0, 255, 136); transform-origin: 430.505px 283.67px;" id="elitkw11x8bt" class="animable"></polygon><polygon points="379.53 373.22 382.43 375.3 385.78 374.09 384.7 377.49 386.89 380.31 383.32 380.33 381.32 383.28 380.19 379.9 376.77 378.9 379.64 376.79 379.53 373.22" style="fill: rgb(0, 255, 136); transform-origin: 381.83px 378.25px;" id="elxrqnmc5nua" class="animable"></polygon><polygon points="405.03 376.05 405.31 379.61 408.39 381.4 405.1 382.76 404.35 386.25 402.03 383.53 398.49 383.9 400.35 380.86 398.91 377.6 402.38 378.44 405.03 376.05" style="fill: rgb(0, 255, 136); transform-origin: 403.44px 381.15px;" id="elznykb2kn86" class="animable"></polygon><polygon points="418.53 274.2 417.28 272.23 414.95 272.13 416.44 270.34 415.81 268.09 417.98 268.96 419.92 267.66 419.77 269.99 421.6 271.44 419.34 272.01 418.53 274.2" style="fill: rgb(0, 255, 136); transform-origin: 418.275px 270.93px;" id="eld9rz1nbu899" class="animable"></polygon><polygon points="378.55 395.22 380.75 394.43 381.34 392.17 382.77 394.01 385.11 393.88 383.79 395.81 384.64 397.99 382.4 397.34 380.59 398.81 380.52 396.48 378.55 395.22" style="fill: rgb(0, 255, 136); transform-origin: 381.83px 395.49px;" id="el83ubpqh21lw" class="animable"></polygon><polygon points="262.9 201.68 264.04 199.57 262.94 197.44 265.3 197.86 266.98 196.16 267.31 198.53 269.45 199.61 267.29 200.66 266.93 203.03 265.27 201.3 262.9 201.68" style="fill: rgb(0, 255, 136); transform-origin: 266.175px 199.595px;" id="elpj492cneic" class="animable"></polygon><polygon points="294.7 158.06 294.18 155.71 291.96 154.81 294.03 153.6 294.2 151.2 296 152.8 298.32 152.22 297.36 154.42 298.63 156.46 296.24 156.22 294.7 158.06" style="fill: rgb(0, 255, 136); transform-origin: 295.295px 154.63px;" id="elc4ujxai906" class="animable"></polygon><polygon points="316.06 206.66 315.71 205.08 314.22 204.48 315.61 203.66 315.73 202.06 316.93 203.13 318.49 202.74 317.85 204.22 318.7 205.58 317.1 205.42 316.06 206.66" style="fill: rgb(0, 255, 136); transform-origin: 316.46px 204.36px;" id="elvvcsq19flmq" class="animable"></polygon><g id="elq518y3pja6"><polygon points="118.53 306.74 119.57 302.43 116.61 299.13 121.03 298.79 123.25 294.95 124.94 299.05 129.28 299.98 125.91 302.85 126.36 307.26 122.59 304.94 118.53 306.74" style="fill: rgb(255, 255, 255); opacity: 0.6; isolation: isolate; transform-origin: 122.945px 301.105px;" class="animable"></polygon></g><g id="el71ekhohnf4n"><polygon points="108.8 176.4 109.17 174.84 108.1 173.65 109.7 173.53 110.5 172.14 111.12 173.62 112.69 173.96 111.47 175 111.63 176.59 110.26 175.75 108.8 176.4" style="fill: rgb(255, 255, 255); opacity: 0.6; isolation: isolate; transform-origin: 110.395px 174.365px;" class="animable"></polygon></g><g id="ela7h1ar72xpa"><polygon points="400.03 290.95 398.13 287.93 394.57 287.79 396.85 285.05 395.88 281.61 399.2 282.94 402.16 280.96 401.93 284.52 404.73 286.73 401.27 287.6 400.03 290.95" style="fill: rgb(255, 255, 255); opacity: 0.6; isolation: isolate; transform-origin: 399.65px 285.955px;" class="animable"></polygon></g><g id="elbjequind4dd"><polygon points="430.75 286.94 429.51 284.97 427.18 284.87 428.67 283.08 428.04 280.83 430.2 281.69 432.15 280.4 431.99 282.73 433.83 284.18 431.56 284.75 430.75 286.94" style="fill: rgb(255, 255, 255); opacity: 0.6; isolation: isolate; transform-origin: 430.505px 283.67px;" class="animable"></polygon></g><g id="elj2b2x23ws5g"><polygon points="379.53 373.22 382.43 375.3 385.78 374.09 384.7 377.49 386.89 380.31 383.32 380.33 381.32 383.28 380.19 379.9 376.77 378.9 379.64 376.79 379.53 373.22" style="fill: rgb(255, 255, 255); opacity: 0.6; isolation: isolate; transform-origin: 381.83px 378.25px;" class="animable"></polygon></g><g id="el3psjj4ioo8"><polygon points="405.03 376.05 405.31 379.61 408.39 381.4 405.1 382.76 404.35 386.25 402.03 383.53 398.49 383.9 400.35 380.86 398.91 377.6 402.38 378.44 405.03 376.05" style="fill: rgb(255, 255, 255); opacity: 0.6; isolation: isolate; transform-origin: 403.44px 381.15px;" class="animable"></polygon></g><g id="el8yix66ej52e"><polygon points="418.53 274.2 417.28 272.23 414.95 272.13 416.44 270.34 415.81 268.09 417.98 268.96 419.92 267.66 419.77 269.99 421.6 271.44 419.34 272.01 418.53 274.2" style="fill: rgb(255, 255, 255); opacity: 0.6; isolation: isolate; transform-origin: 418.275px 270.93px;" class="animable"></polygon></g><g id="elov4qk077vvd"><polygon points="378.55 395.22 380.75 394.43 381.34 392.17 382.77 394.01 385.11 393.88 383.79 395.81 384.64 397.99 382.4 397.34 380.59 398.81 380.52 396.48 378.55 395.22" style="fill: rgb(255, 255, 255); opacity: 0.6; isolation: isolate; transform-origin: 381.83px 395.49px;" class="animable"></polygon></g><g id="elo1xyehaav0h"><polygon points="262.9 201.68 264.04 199.57 262.94 197.44 265.3 197.86 266.98 196.16 267.31 198.53 269.45 199.61 267.29 200.66 266.93 203.03 265.27 201.3 262.9 201.68" style="fill: rgb(255, 255, 255); opacity: 0.6; isolation: isolate; transform-origin: 266.175px 199.595px;" class="animable"></polygon></g><g id="el83wgwp42zqv"><polygon points="294.7 158.06 294.18 155.71 291.96 154.81 294.03 153.6 294.2 151.2 296 152.8 298.32 152.22 297.36 154.42 298.63 156.46 296.24 156.22 294.7 158.06" style="fill: rgb(255, 255, 255); opacity: 0.6; isolation: isolate; transform-origin: 295.295px 154.63px;" class="animable"></polygon></g><g id="elhr8usemg5eo"><polygon points="316.06 206.66 315.71 205.08 314.22 204.48 315.61 203.66 315.73 202.06 316.93 203.13 318.49 202.74 317.85 204.22 318.7 205.58 317.1 205.42 316.06 206.66" style="fill: rgb(255, 255, 255); opacity: 0.6; isolation: isolate; transform-origin: 316.46px 204.36px;" class="animable"></polygon></g></g><g id="freepik--Bats--inject-236" class="animable" style="transform-origin: 269.884px 289.415px;"><path d="M141.87,376.24s-2.64,7.15-7.64,10.08l-3.43-6.41s-.13,3.75-1.86,3.88-3.59-2-3.59-2l.79,7c-2.43.27-6.06-.29-10.72-3.88,0,0-9.09,10.09-7.64,21.5,0,0,6.46-10.12,13.43-1.42,0,0,1.9-6.07,9.47-3.59,6.53,2.11,11.32,10.2,11.32,10.2s-4.32-15.41,4.68-16c0,0,2.58-11.35,13.23-5.94C159.91,389.67,152.8,379.51,141.87,376.24Z" style="fill: rgb(38, 50, 56); transform-origin: 133.767px 393.92px;" id="elyx62seqdj5l" class="animable"></path><path d="M423.39,180.34s-9.15,5.78-17.33,4.76l1.68-10.19s-3.39,4.12-5.45,2.78-2.32-5.36-2.32-5.36l-5.14,8.54c-3-1.78-6.57-5.56-8.73-13.64,0,0-19,3.54-27.18,17.65,0,0,16-5.83,16.36,10,0,0,7.39-5.21,13.78,4.13,5.52,8.06,3.94,21.31,3.94,21.31s8.44-21.1,19.08-14c0,0,12.71-10.56,20.05,4.73C432.13,211.06,432.89,193.46,423.39,180.34Z" style="fill: rgb(38, 50, 56); transform-origin: 395.532px 193.775px;" id="elqb2stgcbqw" class="animable"></path></g><g id="freepik--Clouds--inject-236" class="animable" style="transform-origin: 218.005px 173.623px;"><path d="M402.4,116.37c-7.08-3.87-10.32-.65-12.9-3.87s7.1-11.61-12.24-20c0,0-1.3-18.12-27.74-18.71s-19.34,18.12-26.43,22.65S314,93.87,307,98.38s-3.9,13.62-9.7,14.83-13.59-5.8-20.64-1.28-7.1,8.38-10.33,8.38-9.66-2.59-13.58,0-8.4,5.81-8.4,5.81H407.54S409.49,120.23,402.4,116.37Z" style="fill: none; stroke: rgb(38, 50, 56); stroke-miterlimit: 10; transform-origin: 326.068px 99.9482px;" id="elq5gqrfp1y8" class="animable"></path><path d="M28.38,273.47H134s-2.9-2.09-5.44-3.76-6.71,0-8.8,0-2.12-2.51-6.68-5.43-9.61,1.63-13.37.83-1.68-6.67-6.25-9.6-5.85,1.68-10.44-1.25,0-15-17.12-14.66S48,251.71,48,251.71c-12.52,5.43-6.26,10.86-7.93,12.94s-3.76,0-8.35,2.5S28.38,273.47,28.38,273.47Z" style="fill: none; stroke: rgb(38, 50, 56); stroke-miterlimit: 10; transform-origin: 81.1123px 256.531px;" id="elunf1guvy8h" class="animable"></path></g><g id="freepik--Moon--inject-236" class="animable" style="transform-origin: 86.1739px 141.09px;"><path d="M96.11,154.85a14.7,14.7,0,1,1,0-27.52,13.84,13.84,0,0,0,0,27.52Z" style="fill: rgb(0, 255, 136); transform-origin: 86.1739px 141.09px;" id="elk63bqj1qakp" class="animable"></path><g id="el8s8kc3cfg6n"><path d="M96.11,154.85a14.7,14.7,0,1,1,0-27.52,13.84,13.84,0,0,0,0,27.52Z" style="fill: rgb(255, 255, 255); opacity: 0.6; isolation: isolate; transform-origin: 86.1739px 141.09px;" class="animable"></path></g></g><g id="freepik--Character--inject-236" class="animable animator-active" style="transform-origin: 271.347px 234.514px;"><path d="M455.76,351.5c-57.81,16.67-143.42,6.41-194.84-94.69l21,6.15s97,60.72,170.81,20.25" style="fill: rgb(255, 255, 255); stroke: rgb(38, 50, 56); stroke-linecap: round; stroke-linejoin: round; transform-origin: 358.34px 307.388px;" id="el5y7ofy4cgji" class="animable"></path><path d="M457.36,300.14a94.84,94.84,0,0,0,14.42-9.92" style="fill: none; stroke: rgb(38, 50, 56); stroke-linecap: round; stroke-linejoin: round; transform-origin: 464.57px 295.18px;" id="elj07nuj93sbf" class="animable"></path><path d="M412.58,313.9a123.84,123.84,0,0,0,35.84-9.3" style="fill: none; stroke: rgb(38, 50, 56); stroke-linecap: round; stroke-linejoin: round; transform-origin: 430.5px 309.25px;" id="eltpwfsx4acu" class="animable"></path><path d="M392.58,332.83a169.23,169.23,0,0,0,17,.61" style="fill: none; stroke: rgb(38, 50, 56); stroke-linecap: round; stroke-linejoin: round; transform-origin: 401.08px 333.144px;" id="elb2mbam4u2u" class="animable"></path><path d="M442.8,313.9a46.61,46.61,0,0,0,21.77-10.49" style="fill: none; stroke: rgb(38, 50, 56); stroke-linecap: round; stroke-linejoin: round; transform-origin: 453.685px 308.655px;" id="elc3w4457w6t4" class="animable"></path><path d="M398,338.88s21.25,3.6,40.65-2" style="fill: none; stroke: rgb(38, 50, 56); stroke-linecap: round; stroke-linejoin: round; transform-origin: 418.325px 338.45px;" id="el4xbs7rvbhx4" class="animable"></path><path d="M378.35,349.93l-6.88-3.5,4.12,7.69A36.38,36.38,0,0,1,358.72,368l-.63.24s-33.24-16.82-49.67-37.59c-16.88-21.34,13.35-33.73,13.35-33.73s43.76,11.69,60.41,22.85l.13.2C383.09,321.23,386.7,329,378.35,349.93Z" style="fill: rgb(0, 255, 136); transform-origin: 343.525px 332.58px;" id="elq0mujibq1ug" class="animable"></path><g id="el00574q9wa80kw"><path d="M382.31,319.92c-5.56,6-11.77,13.81-15.85,22.22A85.83,85.83,0,0,0,358.72,368l-.63.24S333.88,356,316.57,339.49a86.31,86.31,0,0,1-8.15-8.84c-5-6.35-5.87-11.91-4.59-16.58a21.81,21.81,0,0,1,6.86-10.15,44.16,44.16,0,0,1,11.08-7s42.79,11.44,59.84,22.48l.57.37Z" style="fill: rgb(255, 255, 255); opacity: 0.6; isolation: isolate; transform-origin: 342.806px 332.58px;" class="animable"></path></g><path d="M236.62,352.75s-2.14,3.27.69,5.43,13,9.69,13.31,13-4.28,17.58,1.25,26.59,6.21,7.71,9.27,7.09a8.8,8.8,0,0,0,4.48-2.14s4,1.44,8.63-5.15,5.29-6.6,3.88-13.84a45.24,45.24,0,0,1-.23-19c1.27-7,3.5-10.44-5.11-17.4a66.2,66.2,0,0,1-13-13.79s-4.8.78-5.24,8.54-2.45,13.39-5.28,12.86a23.54,23.54,0,0,1-3.28-2.51l-3.3,3.73Z" style="fill: rgb(38, 50, 56); transform-origin: 257.489px 369.423px;" id="elnjlz77b7d8j" class="animable"></path><polygon points="144.8 172.62 150.69 192.1 171.61 191.98 171.94 173.18 157.79 165.49 144.8 172.62" style="fill: rgb(38, 50, 56); transform-origin: 158.37px 178.795px;" id="elizr5hkwpv8s" class="animable"></polygon><g id="elpsjksosvbf"><path d="M236.62,352.75s-2.14,3.27.69,5.43,13,9.69,13.31,13-4.28,17.58,1.25,26.59,6.21,7.71,9.27,7.09a8.8,8.8,0,0,0,4.48-2.14s4,1.44,8.63-5.15,5.29-6.6,3.88-13.84a45.24,45.24,0,0,1-.23-19c1.27-7,3.5-10.44-5.11-17.4a66.2,66.2,0,0,1-13-13.79s-4.8.78-5.24,8.54-2.45,13.39-5.28,12.86a23.54,23.54,0,0,1-3.28-2.51l-3.3,3.73Z" style="opacity: 0.2; isolation: isolate; transform-origin: 257.489px 369.423px;" class="animable"></path></g><path d="M256,334.36a6.59,6.59,0,0,0-1.07,3.15c-.2,1.73-.23,4-.78,7.55a26.71,26.71,0,0,1-4.22,10.58L247,352.06a1.83,1.83,0,0,0-.35.33,7.72,7.72,0,0,0-1.36,3.49l-2.42,2.29h0c-3.15-3.94-11.9-6.15-21.28-8.65a189,189,0,0,1-19.4-6.55c-8.48-3.28-20.14-7.85-29.43-23-8.52-14.81-4-20.76,2-34,7.32-12.12,34.94-29.49,34.94-29.49l6.78-1.64h12.27l16.5,16,7.56,14.1a9.13,9.13,0,0,1,0,4.92c-3.15,8.63-19,16-19,16C241.3,313,256,334.36,256,334.36Z" style="fill: rgb(0, 255, 136); transform-origin: 212.028px 306.505px;" id="elpys9b401dj" class="animable"></path><g id="elaf70hjr5oq9"><path d="M231.21,296.87l9-5.92c-18.65-24.75-33.14-23.33-33.14-23.33s-15.46,16.68-21.21,25.14-2.2,21.47,8.06,32.49,24.83,12,35.15,17c5.89,1.86,12.65,6.32,17.57,10.16-2,1.54-1.41,2.47-1.41,2.47a5.81,5.81,0,0,1-2.37,3.31h0c-3.15-3.94-11.9-6.15-21.28-8.65a189,189,0,0,1-19.4-6.55c-8.48-3.28-20.14-7.85-29.43-23-8.52-14.81-4-20.76,2-34,7.32-12.12,34.94-29.49,34.94-29.49l6.78-1.64h12.27l16.5,16L252.8,285a9.13,9.13,0,0,1,0,4.92c-3.15,8.63-19,16-19,16,7.43,7,22.12,28.42,22.12,28.42a6.59,6.59,0,0,0-1.07,3.15c-2.57-3.46-16.28-21.82-21.17-27.41-5.41-6.19-26.14-8.85-19.51-12.42S231.21,296.87,231.21,296.87Z" style="opacity: 0.2; isolation: isolate; transform-origin: 211.983px 306.525px;" class="animable"></path></g><path d="M216.52,255.67s12.8,6,20.1,15.26c10.42,13.2,30.8,58,67.31,74.12,0,0,11-13.57,15.44-28.45l-4.52-.77s8-.85,15.76-12.75,7.58-26.45,22.4-19.33c0,0,3.8-4.78,2.67-15a151.74,151.74,0,0,1-49.86-17.69c-19.75-11.39-36.32-26.48-66.67-16.45C207.37,245.1,216.52,255.67,216.52,255.67Z" style="fill: rgb(0, 255, 136); transform-origin: 285.594px 288.188px;" id="elmqescxhayxf" class="animable"></path><g id="elf42q6wc9yxk"><path d="M353.07,283.67l-.06.08-.61-.29a16.9,16.9,0,0,0-5-1.51c-8.09-1-9.8,8-14.44,17h0a40.06,40.06,0,0,1-2.34,4.07c-5.72,8.78-11.56,11.55-14.25,12.38a8.65,8.65,0,0,1-1.5.37l4.52.77C315,331.42,304,345,304,345c-36.52-16.14-56.9-60.93-67.32-74.13-7.3-9.24-20.11-15.26-20.11-15.26s-8.46-9.78,19.19-19.87c1.09-.4,2.23-.8,3.45-1.2,30.35-10,46.92,5.07,66.67,16.45a151.66,151.66,0,0,0,49.86,17.69C356.72,278.2,353.55,283,353.07,283.67Z" style="opacity: 0.1; isolation: isolate; transform-origin: 285.639px 288.134px;" class="animable"></path></g><g id="el32cv34essjs"><path d="M353.07,283.67l-.67-.21c-1.63-.48-3.29-1-5-1.51-20.18-6.26-44.27-15.48-52.92-22.14-10.76-8.26-30.11-13.61-30.11-13.61,8.28,3.8,19.4,16.55,19.4,16.55C258.7,245.76,236,246.2,236,246.2l-.25-10.4c1.09-.4,2.23-.8,3.45-1.2,30.35-10,46.92,5.07,66.67,16.45a151.66,151.66,0,0,0,49.86,17.69C356.72,278.2,353.55,283,353.07,283.67Z" style="opacity: 0.2; isolation: isolate; transform-origin: 295.835px 257.499px;" class="animable"></path></g><g id="elto4b8hcmamq"><path d="M333,299h0a40.06,40.06,0,0,1-2.34,4.07c-5.72,8.78-11.56,11.55-14.25,12.38-8.19-3.37-31.72-14.88-53.25-43.13C263.1,272.33,306.38,296.1,333,299Z" style="opacity: 0.2; isolation: isolate; transform-origin: 298.08px 293.885px;" class="animable"></path></g><path d="M171.93,246.49s-6.91,8.14-4.22,15.13,7.12,10.16,13.22,10.71,7.36-3.26,9.79-5.86,2.86-8.41-1.26-9.54a13.11,13.11,0,0,0-.23-3l1.47-6.6-3.85-6.62Z" style="fill: rgb(255, 255, 255); transform-origin: 179.822px 256.547px;" id="elzce2c4hc8ea" class="animable"></path><path d="M162.31,178.58a13,13,0,0,0-5,10.46s-12.64,5-12.51,11.54,2.19,15.85,2,19.61-2,13.44-2,13.44l19.82,2.45s22.7,10.85,28.86,16.1,18.58,9.09,28.51,4.05c11.8-6.41,22.9-18.23,22.13-31s-13.29-27-13.29-27a65.89,65.89,0,0,0-.87-18.65c-1.93-10.88-3.86-24.65-15.72-25.5s-22.59,5.05-26.37,11.17c0,0-4.5-2.56-8-2.35,0,0,.75,16.65-8.31,22.11C164.62,182.92,162.31,178.58,162.31,178.58Z" style="fill: rgb(0, 255, 136); transform-origin: 194.478px 206.293px;" id="elgkwckq5dcd" class="animable"></path><g id="elco6ml02xld8"><path d="M228.58,252a52.87,52.87,0,0,1-6.58,4.22c-9.93,5-22.37,1.22-28.52-4s-28.87-16.11-28.87-16.11l-12.23-1.51-7.58-.93s1.72-9.69,2-13.45-1.82-13-2-19.61S157.3,189,157.3,189a12.62,12.62,0,0,1,3.94-9.52,9.6,9.6,0,0,1,1.07-.94s2.3,4.33,9.3,6.36c9.06-5.45,8.31-22.11,8.31-22.11H180c3.43-.19,7.88,2.35,7.88,2.35,3.79-6.11,14.52-12,26.38-11.17S228,168.63,230,179.51a65.89,65.89,0,0,1,.87,18.65s12.51,14.27,13.29,27.05C244.74,235.57,237.59,245.3,228.58,252Z" style="opacity: 0.1; isolation: isolate; transform-origin: 194.496px 206.228px;" class="animable"></path></g><g id="elyeuru9eokoo"><path d="M228.58,252c-.94.37-1.52.54-1.52.54-4.7,1.22-8.85-1.58-13.11-2.94a86.06,86.06,0,0,1-13.77-5.48c-11.88-6.29-18-17.28-16.21-30.85.5-3.81,1.85-7.45,2.92-11.15a81,81,0,0,0,3-17c.19-2.81.13-5.92-1.74-8A15.44,15.44,0,0,0,185.4,175c-2.22-1.54-6.72-3.18-5.71-5.68a10.44,10.44,0,0,0,.28-6.49c3.43-.19,7.88,2.35,7.88,2.35,3.79-6.11,14.52-12,26.38-11.17S228,168.63,230,179.51a65.89,65.89,0,0,1,.87,18.65s12.51,14.27,13.29,27.05C244.74,235.57,237.59,245.3,228.58,252Z" style="opacity: 0.2; isolation: isolate; transform-origin: 211.869px 203.386px;" class="animable"></path></g><path d="M204.48,214.44l18.41.58s.18,23.4-2.67,29.21c0,0-10.8,3.54-40.67,2.65s-28.66-3.62-31.63-3.45c-.71,0-13.28-2.76-18.24-2.78-.92-.3-4.12,1.65-4.73-3.37-3.84-1.5-3.54-1.09-3-3.53-5.46-2.32-1-3.83-1.62-4.37-1.74-.33-1.94-5-.12-5.84,3.94-1.87,13.56-.5,15.82.42,0,0,7.88,5,9.76,7l6.55,3.56s40.07-4.58,51.4-7.88Z" style="fill: rgb(255, 255, 255); transform-origin: 170.912px 230.732px;" id="elrwm3jynhm6" class="animable"></path><path d="M135.7,122.75s-3.21,3.67-2.91,13.07-2.1,22.25,4.92,30.69,19.69,6.42,19.69,6.42l3.9,6.1s3.33,6,9.94,5.79,8.94-15.83,8.68-22c0,0-3.87-7.77-2.46-11.78,0,0,8-1.41,9.23-6.83s-.6-10.84-4.22-11a4.25,4.25,0,0,0-4.46,3s-23.77-1.49-27.92-18.61C150.09,117.58,140.52,119.73,135.7,122.75Z" style="fill: rgb(255, 255, 255); transform-origin: 159.85px 151.213px;" id="elk9uudo16df" class="animable"></path><path d="M144.25,150.66s8.18-1.91,9.14-9.56c0,0,2.12,7.33.11,10.52S144.25,150.66,144.25,150.66Z" style="fill: rgb(255, 255, 255); stroke: rgb(38, 50, 56); stroke-linecap: round; stroke-linejoin: round; transform-origin: 149.308px 146.963px;" id="elxow2v1trmur" class="animable"></path><path d="M143.15,131.15c.5,2.49,1.27,5.64,0,8a3.57,3.57,0,0,1-2.1,1.75c-1,.28-2.3.33-2.06,1.78a2.73,2.73,0,0,0,.82,1.42c.7.7,1.59,1.58,2.67,1.47" style="fill: none; stroke: rgb(38, 50, 56); stroke-linecap: round; stroke-linejoin: round; transform-origin: 141.402px 138.365px;" id="el84ih8a55jbe" class="animable"></path><path d="M153,132.51c0,1.36-.53,2.47-1.18,2.47s-1.18-1.11-1.18-2.47.53-2.48,1.18-2.48S153,131.14,153,132.51Z" style="fill: rgb(38, 50, 56); transform-origin: 151.82px 132.505px;" id="eleh432bimhlv" class="animable"></path><ellipse cx="138.19" cy="136.59" rx="1.18" ry="2.48" style="fill: rgb(38, 50, 56); transform-origin: 138.19px 136.59px;" id="elslu0uq1bpjl" class="animable"></ellipse><path d="M177.39,138.66s2.56-6.28,6.4-4.42,4.19,11.63,0,14.54a4.26,4.26,0,0,1-6-.52,4.21,4.21,0,0,1-.51-.76" style="fill: none; stroke: rgb(38, 50, 56); stroke-linecap: round; stroke-linejoin: round; transform-origin: 182.041px 141.837px;" id="elf4g06nj6sx" class="animable"></path><path d="M145.63,115.35a24.37,24.37,0,0,0-9,6.19c-3.44,3.91-3.6,9.47-3.43,14.4.2,5.88.2,11.77.47,17.64.34,7.37,4.63,19,15.77,19.54s15.09-1.54,20.4-8.06" style="fill: none; stroke: rgb(38, 50, 56); stroke-linecap: round; stroke-linejoin: round; transform-origin: 151.498px 144.276px;" id="elyjcbhu16dk" class="animable"></path><path d="M157.79,173.18a40.22,40.22,0,0,1,4.47,8" style="fill: none; stroke: rgb(38, 50, 56); stroke-linecap: round; stroke-linejoin: round; transform-origin: 160.025px 177.18px;" id="el59rlxmmubm2" class="animable"></path><path d="M178.71,149.28s-3.05,5.78,1.58,13.67" style="fill: none; stroke: rgb(38, 50, 56); stroke-linecap: round; stroke-linejoin: round; transform-origin: 179.007px 156.115px;" id="eloi4sxsfh9ge" class="animable"></path><path d="M218.92,136.42c2.29-11.18-3.91-22.44-9.59-31.67-13.6-22.11-70.22-45.43-96.63-5.67-6,9-9.19,19.17-7.29,30,2.88,16.47,16.07,27.21,30.52,34,0,0-2.56-4.88-2.56-13s-4.33-24.28,8-32.13,30.73-6.64,36.44-2.6,18.55,9.76,27.59,17.37S217.05,141,217.06,141C217.74,141.23,218.42,138.88,218.92,136.42Z" style="fill: rgb(38, 50, 56); transform-origin: 162.135px 120.304px;" id="ellfl72geiwqd" class="animable"></path><path d="M196.25,91.45c-.5-.35,11.62-2.85,11.62-2.85s4.49-21.62,6.94-24.67,6.32,28.34,5.5,33.23-9.17,9.58-9.17,9.58S202.78,95.94,196.25,91.45Z" style="fill: rgb(38, 50, 56); transform-origin: 208.328px 85.2309px;" id="elqvo068r58ys" class="animable"></path><path d="M161.11,179.51s3,5.26,10.5,5.43c0,0,1.92,10-3.5,11s-10.68-6.48-10.68-6.48S156.2,184.59,161.11,179.51Z" style="fill: none; stroke: rgb(38, 50, 56); stroke-linecap: round; stroke-linejoin: round; transform-origin: 164.617px 187.771px;" id="elmx7gxknp4ib" class="animable"></path><path d="M171.61,184.94s6.12,7.18,10.68,4.73,9.62-14.36,6-23.81c0,0-4.55-3.32-8-3.5C180.19,162.36,182.46,179,171.61,184.94Z" style="fill: none; stroke: rgb(38, 50, 56); stroke-linecap: round; stroke-linejoin: round; transform-origin: 180.567px 176.27px;" id="eljv5yow7vm1g" class="animable"></path><path d="M188.24,165.86s12-14.3,24.37-11.48,16.27,13.67,16.92,21.48,5.21,25.61-4.12,32.33l-.87,6.73-21.27-1.3.22-4.77s-7.59.21-7.16-9.33S200,182.37,197.85,178" style="fill: none; stroke: rgb(38, 50, 56); stroke-linecap: round; stroke-linejoin: round; transform-origin: 209.727px 184.466px;" id="el9n8t26t9aoq" class="animable"></path><path d="M203.14,208.79h3.74a33.2,33.2,0,0,1,4.23-.11c2.38.18,4.65,1.06,7,1.42s5.56-.12,7.22-1.84" style="fill: none; stroke: rgb(38, 50, 56); stroke-linecap: round; stroke-linejoin: round; transform-origin: 214.235px 209.236px;" id="el4xk0bl090bx" class="animable"></path><path d="M209.22,207.89c0-.46-4.87-4.87-3.5-17.52" style="fill: none; stroke: rgb(38, 50, 56); stroke-linecap: round; stroke-linejoin: round; transform-origin: 207.349px 199.13px;" id="el6f9vbg2m5hu" class="animable"></path><path d="M221,185.65a33.72,33.72,0,0,0-1.4-7.78" style="fill: none; stroke: rgb(38, 50, 56); stroke-linecap: round; stroke-linejoin: round; transform-origin: 220.3px 181.76px;" id="el05slvrlko9sh" class="animable"></path><path d="M216.69,209.11A57.53,57.53,0,0,0,221,191.56" style="fill: none; stroke: rgb(38, 50, 56); stroke-linecap: round; stroke-linejoin: round; transform-origin: 218.845px 200.335px;" id="elrn628wf3dj" class="animable"></path><polygon points="249.93 295.29 254.48 297.68 251.79 293.25 249.93 295.29" style="fill: rgb(38, 50, 56); transform-origin: 252.205px 295.465px;" id="elak74nofjef4" class="animable"></polygon><path d="M120.25,223.54a3.7,3.7,0,0,0-1.16,3.19L72.42,202A2.29,2.29,0,0,1,74,197.69a2.22,2.22,0,0,1,.59.31l48.27,25A5.56,5.56,0,0,0,120.25,223.54Z" style="fill: rgb(38, 50, 56); transform-origin: 96.8874px 212.14px;" id="eltzet2rvzs2" class="animable"></path><polygon points="180.23 253.5 177.34 257.16 153.77 244.78 165.02 245.5 180.23 253.5" style="fill: rgb(38, 50, 56); transform-origin: 167px 250.97px;" id="elc58q33nih7u" class="animable"></polygon><path d="M207.12,267.62l-14.84-7.8a21.27,21.27,0,0,1-.54,4.9l11.83,6.21Z" style="fill: rgb(38, 50, 56); transform-origin: 199.43px 265.375px;" id="elui2dquub1wi" class="animable"></path><path d="M157.43,189.49c-3.8,1.57-7.44,2.95-10.23,6.14-5.42,6.19-.86,14.82-.47,21.81.28,4.78-.74,9.32-.88,13" style="fill: none; stroke: rgb(38, 50, 56); stroke-linecap: round; stroke-linejoin: round; transform-origin: 150.998px 209.965px;" id="elvztycmv0xig" class="animable"></path><ellipse cx="176.36" cy="196.89" rx="2.27" ry="2.64" style="fill: rgb(38, 50, 56); transform-origin: 176.36px 196.89px;" id="elp34ofrchrf" class="animable"></ellipse><path d="M147.24,127.54s3-6.05,8.41-.51" style="fill: none; stroke: rgb(38, 50, 56); stroke-linecap: round; stroke-linejoin: round; transform-origin: 151.445px 126.117px;" id="ela7m5rv4yjjn" class="animable"></path><path d="M141.58,129.81s-3.4-3.77-6.19.85" style="fill: none; stroke: rgb(38, 50, 56); stroke-linecap: round; stroke-linejoin: round; transform-origin: 138.485px 129.51px;" id="el5alk6f4gv7v" class="animable"></path><path d="M231.25,199s12.79,13.6,12.46,27.87-14.78,29.86-29.38,31.52-27.48-11-27.48-11" style="fill: none; stroke: rgb(38, 50, 56); stroke-linecap: round; stroke-linejoin: round; transform-origin: 215.283px 228.77px;" id="elfc9i9d9qlnl" class="animable"></path><path d="M237.33,224a26.46,26.46,0,0,0-2.76-5.72" style="fill: none; stroke: rgb(38, 50, 56); stroke-linecap: round; stroke-linejoin: round; transform-origin: 235.95px 221.14px;" id="el3vdl73c2v7d" class="animable"></path><path d="M240.26,238.44a53,53,0,0,0-1.11-7.84" style="fill: none; stroke: rgb(38, 50, 56); stroke-linecap: round; stroke-linejoin: round; transform-origin: 239.705px 234.52px;" id="el8m1y2nsso2m" class="animable"></path><path d="M214.41,246.77a15,15,0,0,0,15.17,4.57" style="fill: none; stroke: rgb(38, 50, 56); stroke-linecap: round; stroke-linejoin: round; transform-origin: 221.995px 249.314px;" id="elolphkk04h8d" class="animable"></path><path d="M218,257.83s-27.33,22.83-33.55,38.05,11.07,35.28,27.67,40.12,29.55,11.68,37.85,19.64" style="fill: none; stroke: rgb(38, 50, 56); stroke-linecap: round; stroke-linejoin: round; transform-origin: 216.562px 306.735px;" id="el98l8py45zxu" class="animable"></path><path d="M214.5,300.38s11.07-3.46,21.1,7.26c7.89,8.44,17.16,21.72,20.9,27.49" style="fill: none; stroke: rgb(38, 50, 56); stroke-linecap: round; stroke-linejoin: round; transform-origin: 235.5px 317.489px;" id="eldagewtcd9pa" class="animable"></path><path d="M233.87,305.22s12.71-4.59,17.6-12.46" style="fill: none; stroke: rgb(38, 50, 56); stroke-linecap: round; stroke-linejoin: round; transform-origin: 242.67px 298.99px;" id="elcylop547sja" class="animable"></path><path d="M195.08,266.47c-15.22,11.32-29.59,25.73-26.39,43.09,2.07,11.24,12.23,22.53,21.82,27.78a141.2,141.2,0,0,0,24.23,10.3c8.21,2.67,20.53,4.21,28.15,9.84" style="fill: none; stroke: rgb(38, 50, 56); stroke-linecap: round; stroke-linejoin: round; transform-origin: 205.565px 311.975px;" id="elw26xai56c8s" class="animable"></path><path d="M207.12,258.06c-2.54,1.69-5.21,3.49-7.91,5.41" style="fill: none; stroke: rgb(38, 50, 56); stroke-linecap: round; stroke-linejoin: round; transform-origin: 203.165px 260.765px;" id="el2uktoby8v1b" class="animable"></path><path d="M204.48,214.44l-.7,12.25s-14.06,3.79-51.44,7.5" style="fill: none; stroke: rgb(38, 50, 56); stroke-linecap: round; stroke-linejoin: round; transform-origin: 178.41px 224.315px;" id="el4nn37p4mq5y" class="animable"></path><path d="M222.89,215s.58,21.31-2.61,28.55c0,0-18.31,8.17-69.28.36" style="fill: none; stroke: rgb(38, 50, 56); stroke-linecap: round; stroke-linejoin: round; transform-origin: 186.966px 231.145px;" id="elg1mszyncw98" class="animable"></path><path d="M180.28,253.41a9.91,9.91,0,0,1,3.41-3.31c2.67-1.07,1.55,6.72,1.37,7.7a12.68,12.68,0,0,1-3.64,6.52" style="fill: none; stroke: rgb(38, 50, 56); stroke-linecap: round; stroke-linejoin: round; transform-origin: 182.863px 257.16px;" id="elulpmif79u0r" class="animable"></path><path d="M176.16,260.25a55.15,55.15,0,0,1,4.12-6.84" style="fill: none; stroke: rgb(38, 50, 56); stroke-linecap: round; stroke-linejoin: round; transform-origin: 178.22px 256.83px;" id="elvq6f0fwqya" class="animable"></path><path d="M185.78,253.38s1.71-2.5,3.15-.27-.79,13.16-4.6,14.34" style="fill: none; stroke: rgb(38, 50, 56); stroke-linecap: round; stroke-linejoin: round; transform-origin: 186.851px 259.817px;" id="elnbycwpi7v8i" class="animable"></path><path d="M189.46,256.93s2.89.13,3,4.47-5.92,12.1-12.49,10.78-17-10.25-11.18-19.59" style="fill: none; stroke: rgb(38, 50, 56); stroke-linecap: round; stroke-linejoin: round; transform-origin: 179.774px 262.46px;" id="elpqpaz7q33r" class="animable"></path><path d="M247,358s7.83,6.23,9.78,9.35.59,9.18,0,16.6,2.73,15.62,8,18.35,14.06-8.59,13.67-15.62c-.23-4.24-1.91-8.22-2-12.57,0-4.58,1.2-8.49,2.23-12.86.81-3.45.54-7.82-2-10.49-4.68-4.88-12.1-7.62-18-17.18" style="fill: none; stroke: rgb(38, 50, 56); stroke-linecap: round; stroke-linejoin: round; transform-origin: 263.043px 368.148px;" id="eldjzwlxdw66o" class="animable"></path><path d="M262.57,400.81A17.59,17.59,0,0,0,274,390c3.14-8.79-2.2-13.49-.47-23.85s3-12.87.47-17.58" style="fill: none; stroke: rgb(38, 50, 56); stroke-linecap: round; stroke-linejoin: round; transform-origin: 268.998px 374.69px;" id="elxcsfvhazebq" class="animable"></path><path d="M257.63,368.17c-.5.91,2.11-3.19,7.07-5.29" style="fill: none; stroke: rgb(38, 50, 56); stroke-linecap: round; stroke-linejoin: round; transform-origin: 261.135px 365.59px;" id="elnsa72y9o14" class="animable"></path><path d="M238.4,359.13s7.94,5.22,11.32,10-1.79,15.7,1.59,26a21.51,21.51,0,0,0,4.82,8.52,4.83,4.83,0,0,0,6.83.12,4.28,4.28,0,0,0,.49-.55l.57-.74" style="fill: none; stroke: rgb(38, 50, 56); stroke-linecap: round; stroke-linejoin: round; transform-origin: 251.21px 382.128px;" id="elpvfp3hs4nf" class="animable"></path><path d="M255.28,402.29a7,7,0,0,0,5.76-3.18" style="fill: none; stroke: rgb(38, 50, 56); stroke-linecap: round; stroke-linejoin: round; transform-origin: 258.16px 400.7px;" id="elcyenm28l4qj" class="animable"></path><path d="M246,352.49a6.5,6.5,0,0,0-.64,3.39,2.24,2.24,0,0,0,2.41,2,3,3,0,0,0,1.49-1.05c3.19-3.6,4.5-8.49,5.14-13.26a34.07,34.07,0,0,1,1-5.48,8.17,8.17,0,0,1,3.12-4.49" style="fill: none; stroke: rgb(38, 50, 56); stroke-linecap: round; stroke-linejoin: round; transform-origin: 251.929px 345.744px;" id="elqe66yfc2rqq" class="animable"></path><path d="M236.84,354.33a5.7,5.7,0,0,0-.1,2.69,3.41,3.41,0,0,0,1.62,2.08,3.35,3.35,0,0,0,2.63.28,6.8,6.8,0,0,0,2.83-2.17l.88-1" style="fill: none; stroke: rgb(38, 50, 56); stroke-linecap: round; stroke-linejoin: round; transform-origin: 240.662px 356.93px;" id="eli0i5k9f5q2h" class="animable"></path><path d="M157.19,214.49s.44,13.69,5.12,18.13" style="fill: none; stroke: rgb(38, 50, 56); stroke-linecap: round; stroke-linejoin: round; transform-origin: 159.75px 223.555px;" id="el56zug3zj1ok" class="animable"></path><path d="M242.28,234.43s13.84-7.56,31.79-.72,46.15,31.62,81.61,35c0,0,1.71,6.84-2.56,15.39" style="fill: none; stroke: rgb(38, 50, 56); stroke-linecap: round; stroke-linejoin: round; transform-origin: 299.149px 257.473px;" id="elhxajm4cavh" class="animable"></path><path d="M239.81,241.2s8.76-7.5,32.84,10.64" style="fill: none; stroke: rgb(38, 50, 56); stroke-linecap: round; stroke-linejoin: round; transform-origin: 256.23px 245.752px;" id="el75mlnwygigf" class="animable"></path><path d="M275.31,285.52c13.13,12.85,31.3,28.53,44.06,31.08,0,0-7.32,19.23-15.44,28.45-29.45-10.44-51.3-51.3-61-65.68a79.69,79.69,0,0,0-23.15-22.21" style="fill: none; stroke: rgb(38, 50, 56); stroke-linecap: round; stroke-linejoin: round; transform-origin: 269.575px 301.105px;" id="elaa3q6zz355e" class="animable"></path><path d="M258.69,268.11S263,273,269.5,279.7" style="fill: none; stroke: rgb(38, 50, 56); stroke-linecap: round; stroke-linejoin: round; transform-origin: 264.095px 273.905px;" id="ellsbtun6a7a" class="animable"></path><path d="M316.57,315.83a39.39,39.39,0,0,0,17.11-18.24c1.38-3,2.37-6.21,4-9.11s4-5.57,7.1-6.63c2.41-.82,6.6.36,8.25,2.31" style="fill: none; stroke: rgb(38, 50, 56); stroke-linecap: round; stroke-linejoin: round; transform-origin: 334.8px 298.708px;" id="el7humtug9h49" class="animable"></path><path d="M347.48,281.53s-26.31-8.13-42.82-16.79" style="fill: none; stroke: rgb(38, 50, 56); stroke-linecap: round; stroke-linejoin: round; transform-origin: 326.07px 273.135px;" id="el5w5vfh0kyq3" class="animable"></path><path d="M223.38,255.67s10.56,3,20.74,14.15" style="fill: none; stroke: rgb(38, 50, 56); stroke-linecap: round; stroke-linejoin: round; transform-origin: 233.75px 262.745px;" id="elnlu7kwdi5v" class="animable"></path><path d="M332.1,300.53c19.46,2.59,50.08,19.19,50.08,19.19-17.5,14-24.1,48.47-24.1,48.47-21.34-11.53-41.55-28.63-47.16-33.49" style="fill: none; stroke: rgb(38, 50, 56); stroke-linecap: round; stroke-linejoin: round; transform-origin: 346.55px 334.36px;" id="elxvy94xak1qn" class="animable"></path><path d="M354.45,320c3.25,1.68,6.37,3.44,9.2,5.23" style="fill: none; stroke: rgb(38, 50, 56); stroke-linecap: round; stroke-linejoin: round; transform-origin: 359.05px 322.615px;" id="elvn21xomnb3l" class="animable"></path><path d="M326.8,307.89c5.95,2.26,13.2,5.16,21.05,8.87" style="fill: none; stroke: rgb(38, 50, 56); stroke-linecap: round; stroke-linejoin: round; transform-origin: 337.325px 312.325px;" id="el72h9en0g7g9" class="animable"></path><path d="M350.16,338.88c4.46,2.25,9.45,4.6,14.32,6.52" style="fill: none; stroke: rgb(38, 50, 56); stroke-linecap: round; stroke-linejoin: round; transform-origin: 357.32px 342.14px;" id="el379wgcsfzcj" class="animable"></path><path d="M335.07,330.6s4.67,2.82,11.24,6.29" style="fill: none; stroke: rgb(38, 50, 56); stroke-linecap: round; stroke-linejoin: round; transform-origin: 340.69px 333.745px;" id="elqdpyyixtfm" class="animable"></path><path d="M382.18,319.72c3.11,13.17.47,22.66-3.83,30.21l-6.88-3.5s4.32,8.23,4.12,7.69a46.75,46.75,0,0,1-17.5,14.07" style="fill: none; stroke: rgb(38, 50, 56); stroke-linecap: round; stroke-linejoin: round; transform-origin: 370.814px 343.955px;" id="elduqnsa6srbp" class="animable"></path><path d="M178.37,136.31s-21.65,1.14-27.92-18.61c0,0-7.21,9.31-17.66,9.69,0,0,4.11-15,25-16.74s37.69,13.4,51.94,23.46,32.46,18.71,32.46,18.71l-5.69,7a53.87,53.87,0,0,0-9.7-7s3.6,6.27,8,9.5l-7,7.41S221.86,153.4,208.94,154s-20.7,11.89-20.7,11.89-5.51-4.1-8.92-3.15a17.92,17.92,0,0,1-1.14-12.91s9.75,1.09,8.74-8.36C186.05,133.37,182.36,131.37,178.37,136.31Z" style="fill: rgb(38, 50, 56); transform-origin: 187.49px 140.121px;" id="elilhnhhm1s49" class="animable"></path><line x1="188.93" y1="253.11" x2="189.52" y2="250" style="fill: none; stroke: rgb(38, 50, 56); stroke-linecap: round; stroke-linejoin: round; transform-origin: 189.225px 251.555px;" id="elw4hfo1wm98j" class="animable"></line><path d="M203.57,270.93l3.55-3.31-14-7.37a19.38,19.38,0,0,1-1.35,4.47Z" style="fill: rgb(38, 50, 56); transform-origin: 199.445px 265.59px;" id="elnfxurm65x2" class="animable"></path><g id="elboilhtgz53c"><path d="M218.92,136.42c2.29-11.18-3.91-22.44-9.59-31.67-13.6-22.11-70.22-45.43-96.63-5.67-6,9-9.19,19.17-7.29,30,2.88,16.47,16.07,27.21,30.52,34,0,0-2.56-4.88-2.56-13s-4.36-26,8-33.89c5.83-3.7,12.82-5.2,19.65-5.44s13.2.24,19.46,3.32a70.81,70.81,0,0,1,13.09,8.78,121.84,121.84,0,0,0,12,8.29c10,6.23,13.26,9,13.27,9C219.53,140.3,218.42,138.88,218.92,136.42Z" style="opacity: 0.4; isolation: isolate; transform-origin: 162.135px 120.304px;" class="animable"></path></g><g id="elzyfaazej7a"><path d="M196.25,91.45c-.5-.35,11.62-2.85,11.62-2.85s4.49-21.62,6.94-24.67,6.32,28.34,5.5,33.23-9.17,9.58-9.17,9.58S202.78,95.94,196.25,91.45Z" style="opacity: 0.4; isolation: isolate; transform-origin: 208.328px 85.2309px;" class="animable"></path></g><g id="el5on38f3jux5"><path d="M158.87,114.78a39.6,39.6,0,0,0,17.76,15.94" style="fill: none; stroke: rgb(255, 255, 255); stroke-linecap: round; stroke-linejoin: round; opacity: 0.2; isolation: isolate; transform-origin: 167.75px 122.75px;" class="animable"></path></g><g id="el4d1sir9uwx8"><path d="M193,135c10.18,5.14,30.61,20.46,37,26.19" style="fill: none; stroke: rgb(255, 255, 255); stroke-linecap: round; stroke-linejoin: round; opacity: 0.2; isolation: isolate; transform-origin: 211.5px 148.095px;" class="animable"></path></g><path d="M151.92,233.91s-3.72-2.15-8.59-4.87-6.61-5.54-9.31-5.79a93.51,93.51,0,0,0-9.76-.31,11,11,0,0,0-1.44.06,5.56,5.56,0,0,0-2.57.54,3.7,3.7,0,0,0-1.16,3.19v.13a4.37,4.37,0,0,0,.67,1.71" style="fill: none; stroke: rgb(38, 50, 56); stroke-linecap: round; stroke-linejoin: round; transform-origin: 135.49px 228.415px;" id="el0smzwgrbr5ld" class="animable"></path><path d="M126.16,225a26.07,26.07,0,0,1-4.62,3.4c-2.4,1.28-2.73,2.71-2.33,3.49s1.17,1.18,2.78,1.85" style="fill: none; stroke: rgb(38, 50, 56); stroke-linecap: round; stroke-linejoin: round; transform-origin: 122.613px 229.37px;" id="elf8tbwsigti" class="animable"></path><path d="M124.8,230.54c-.43.63-.88,1.26-1.36,1.85-.68.83-2.15,2.17-1.44,3.37a1.58,1.58,0,0,0,.56.53,8.54,8.54,0,0,0,2.67,1" style="fill: none; stroke: rgb(38, 50, 56); stroke-linecap: round; stroke-linejoin: round; transform-origin: 123.52px 233.915px;" id="el85pdzdlwzcg" class="animable"></path><path d="M125.62,235.81a11.26,11.26,0,0,1-.57,2.14,2.17,2.17,0,0,0,1.4,2.55,5.71,5.71,0,0,0,4.66-.34" style="fill: none; stroke: rgb(38, 50, 56); stroke-linecap: round; stroke-linejoin: round; transform-origin: 128.051px 238.327px;" id="el40jxygh425" class="animable"></path><path d="M127.85,239.38a50.41,50.41,0,0,1,5.41,1.51c1.93.74,16.94,3.31,17.74,3" style="fill: none; stroke: rgb(38, 50, 56); stroke-linecap: round; stroke-linejoin: round; transform-origin: 139.425px 241.648px;" id="elmarbcxeczhe" class="animable"></path></g><defs>     <filter id="active" height="200%">         <feMorphology in="SourceAlpha" result="DILATED" operator="dilate" radius="2"></feMorphology>                <feFlood flood-color="#32DFEC" flood-opacity="1" result="PINK"></feFlood>        <feComposite in="PINK" in2="DILATED" operator="in" result="OUTLINE"></feComposite>        <feMerge>            <feMergeNode in="OUTLINE"></feMergeNode>            <feMergeNode in="SourceGraphic"></feMergeNode>        </feMerge>    </filter>    <filter id="hover" height="200%">        <feMorphology in="SourceAlpha" result="DILATED" operator="dilate" radius="2"></feMorphology>                <feFlood flood-color="#ff0000" flood-opacity="0.5" result="PINK"></feFlood>        <feComposite in="PINK" in2="DILATED" operator="in" result="OUTLINE"></feComposite>        <feMerge>            <feMergeNode in="OUTLINE"></feMergeNode>            <feMergeNode in="SourceGraphic"></feMergeNode>        </feMerge>            <feColorMatrix type="matrix" values="0   0   0   0   0                0   1   0   0   0                0   0   0   0   0                0   0   0   1   0 "></feColorMatrix>    </filter></defs></svg>